<?xml version="1.0" encoding="utf-8"?>
<!-- Generator: Adobe Illustrator 24.3.0, SVG Export Plug-In . SVG Version: 6.00 Build 0)  -->
<svg version="1.1" id="Layer_1" xmlns="http://www.w3.org/2000/svg" xmlns:xlink="http://www.w3.org/1999/xlink" x="0px" y="0px"
	 viewBox="0 0 512 512" style="enable-background:new 0 0 512 512;" xml:space="preserve">
<style type="text/css">
	.st0{fill:#FFFFFF;stroke:#000000;stroke-miterlimit:10;}
	.st1{fill:#C0F0FB;}
	.st2{fill:#FF7480;}
	.st3{display:none;}
</style>
<circle class="st0" cx="256" cy="256" r="246.1"/>
<g id="Layer_1_1_">
	<g id="XMLID_1031_">
		<g id="XMLID_1564_">
			<g id="XMLID_1185_">
				<circle id="XMLID_1207_" class="st1" cx="256" cy="256" r="180.9"/>
				<g>
					<g>
						<path d="M271.4,148.1c-5.5-0.8-10.7,3-11.6,8.5l-29.8,195c-0.8,5.5,3,10.7,8.5,11.6c0.5,0.1,1,0.1,1.5,0.1
							c4.9,0,9.3-3.6,10-8.6l29.8-195C280.8,154.1,277,149,271.4,148.1z"/>
					</g>
				</g>
				<g id="XMLID_1187_">
					<circle id="XMLID_1205_" class="st2" cx="256" cy="256" r="24.4"/>
				</g>
			</g>
		</g>
		<g id="XMLID_971_">
			<g id="XMLID_977_">
				<path id="XMLID_1030_" d="M457.4,97.9h15.8c5.5,0,10-4.5,10-10s-4.5-10-10-10h-38c-5.5,0-10,4.5-10,10v38c0,5.5,4.5,10,10,10
					s10-4.5,10-10v-11C475.5,155.5,492,204.8,492,256c0,130.1-105.9,236-236,236S20,386.1,20,256S125.9,20,256,20
					c9.6,0,19.3,0.6,28.8,1.7c5.5,0.7,10.5-3.2,11.1-8.7c0.7-5.5-3.2-10.5-8.7-11.1C276.9,0.6,266.4,0,256,0
					C187.6,0,123.3,26.6,75,75C26.6,123.3,0,187.6,0,256s26.6,132.7,75,181c48.4,48.4,112.6,75,181,75s132.7-26.6,181-75
					c48.4-48.4,75-112.6,75-181C512,198.3,492.7,142.9,457.4,97.9z"/>
				<path id="XMLID_1029_" d="M108.4,150.9c-4.7-3-10.8-1.6-13.8,3.1c-22.8,36-32.9,79.4-28.4,122c4.5,43.3,24,84.1,54.9,114.9
					c37.2,37.2,86.1,55.8,135,55.8s97.8-18.6,135-55.8c74.4-74.4,74.4-195.5,0-269.9c-30.8-30.8-71.5-50.3-114.8-54.8
					c-42.6-4.5-85.9,5.5-121.9,28.2c-4.7,2.9-6.1,9.1-3.1,13.8c2.9,4.7,9.1,6.1,13.8,3.1c67.9-42.8,155-33,211.8,23.9
					c66.6,66.6,66.6,175,0,241.7c-66.6,66.6-175,66.6-241.7,0c-56.1-56.1-66-145.3-23.7-212.1C114.4,160,113.1,153.9,108.4,150.9z"
					/>
				<path id="XMLID_1028_" class="st3" d="M385.9,266.2h12.3c5.5,0,10-4.5,10-10s-4.5-10-10-10h-12.3c-5.5,0-10,4.5-10,10
					S380.4,266.2,385.9,266.2z"/>
				<path id="XMLID_1004_" class="st3" d="M103.8,255.8c0,5.5,4.5,10,10,10h12.3c5.5,0,10-4.5,10-10s-4.5-10-10-10h-12.3
					C108.2,245.8,103.8,250.3,103.8,255.8z"/>
				<path id="XMLID_1001_" class="st3" d="M266.2,126.1v-12.3c0-5.5-4.5-10-10-10s-10,4.5-10,10v12.3c0,5.5,4.5,10,10,10
					S266.2,131.6,266.2,126.1z"/>
				<path id="XMLID_1415_" class="st3" d="M245.8,385.9v12.3c0,5.5,4.5,10,10,10c5.5,0,10-4.5,10-10v-12.3c0-5.5-4.5-10-10-10
					S245.8,380.4,245.8,385.9z"/>
				<path id="XMLID_996_" class="st3" d="M205.9,191.8c-3.9-3.9-10.2-3.9-14.1,0c-3.9,3.9-3.9,10.2,0,14.1l33.9,33.9
					c-2.6,4.8-4.1,10.4-4.1,16.2c0,19,15.4,34.4,34.4,34.4s34.4-15.4,34.4-34.4c0-5.9-1.5-11.4-4.1-16.2l68.3-68.3
					c3.9-3.9,3.9-10.2,0-14.1c-3.9-3.9-10.2-3.9-14.1,0l-68.3,68.3c-4.8-2.6-10.4-4.1-16.2-4.1s-11.4,1.5-16.2,4.1L205.9,191.8z
					 M270.4,256c0,8-6.5,14.4-14.4,14.4s-14.4-6.5-14.4-14.4s6.5-14.4,14.4-14.4C264,241.6,270.4,248,270.4,256z"/>
				<path id="XMLID_980_" d="M135.2,135.2c1.9-1.9,2.9-4.4,2.9-7.1s-1.1-5.2-2.9-7.1c-1.9-1.9-4.4-2.9-7.1-2.9
					c-2.6,0-5.2,1.1-7.1,2.9c-1.9,1.9-2.9,4.4-2.9,7.1c0,2.6,1.1,5.2,2.9,7.1c1.9,1.9,4.4,2.9,7.1,2.9
					C130.7,138.1,133.3,137,135.2,135.2z"/>
				<path id="XMLID_979_" d="M325.2,29.9c2.6,0,5.2-1.1,7.1-2.9c1.9-1.9,2.9-4.4,2.9-7.1c0-2.6-1.1-5.2-2.9-7.1
					c-1.9-1.9-4.4-2.9-7.1-2.9c-2.6,0-5.2,1.1-7.1,2.9c-1.9,1.9-2.9,4.4-2.9,7.1c0,2.6,1.1,5.2,2.9,7.1
					C320,28.8,322.6,29.9,325.2,29.9z"/>
			</g>
		</g>
	</g>
</g>
<g id="code">
	<g>
		<g>
			<path d="M387.7,248.7L325,182.3c-3.9-4.1-10.3-4.3-14.4-0.4c-4.1,3.9-4.3,10.3-0.4,14.4l56.1,59.4l-56.1,59.4
				c-3.9,4.1-3.7,10.5,0.4,14.4c2,1.9,4.5,2.8,7,2.8c2.7,0,5.4-1.1,7.4-3.2l62.6-66.4C391.4,258.7,391.4,252.6,387.7,248.7z"/>
		</g>
	</g>
	<g>
		<g>
			<path d="M199.7,315.1l-56.1-59.4l56.1-59.4c3.9-4.1,3.7-10.5-0.4-14.4c-4.1-3.9-10.5-3.7-14.4,0.4l-62.6,66.4
				c-3.7,3.9-3.7,10,0,13.9L185,329c2,2.1,4.7,3.2,7.4,3.2c2.5,0,5-0.9,7-2.8C203.4,325.6,203.6,319.2,199.7,315.1z"/>
		</g>
	</g>
</g>
</svg>
